<svg width="20" height="20" viewBox="0 0 20 20" fill="none" xmlns="http://www.w3.org/2000/svg">
<rect width="20" height="20" rx="3.33333" fill="#C0028B"/>
<path d="M5.33333 16.6664H14.6667C15.0203 16.6664 15.3594 16.5259 15.6095 16.2758C15.8595 16.0258 16 15.6866 16 15.333V7.99969C16 7.82288 15.9298 7.65331 15.8047 7.52829C15.6797 7.40326 15.5101 7.33303 15.3333 7.33303H13.3333V6.81503C13.3333 5.07569 12.0647 3.51836 10.3333 3.34969C9.86992 3.30363 9.40199 3.35509 8.95966 3.50076C8.51732 3.64643 8.11038 3.88307 7.76501 4.19548C7.41964 4.50788 7.14349 4.88912 6.95433 5.31467C6.76516 5.74022 6.66717 6.20066 6.66667 6.66636V7.33303H4.66667C4.48986 7.33303 4.32029 7.40326 4.19526 7.52829C4.07024 7.65331 4 7.82288 4 7.99969V15.333C4 15.6866 4.14048 16.0258 4.39052 16.2758C4.64057 16.5259 4.97971 16.6664 5.33333 16.6664ZM13.3333 8.66636V9.99969H12V8.66636H13.3333ZM8 6.66636C8 5.56369 8.89733 4.66636 10 4.66636C11.1027 4.66636 12 5.56369 12 6.66636V7.33303H8V6.66636ZM6.66667 8.66636H8V9.99969H6.66667V8.66636Z" fill="white"/>
</svg>
