<svg width="50" height="50" viewBox="0 0 50 50" fill="none" xmlns="http://www.w3.org/2000/svg">
<path d="M34.8 3.30001C35.6222 3.30001 36.4107 3.62662 36.992 4.20798C37.5734 4.78934 37.9 5.57784 37.9 6.40001V43.6C37.9 44.4222 37.5734 45.2107 36.992 45.792C36.4107 46.3734 35.6222 46.7 34.8 46.7H16.2C15.3778 46.7 14.5893 46.3734 14.008 45.792C13.4266 45.2107 13.1 44.4222 13.1 43.6V6.40001C13.1 5.57784 13.4266 4.78934 14.008 4.20798C14.5893 3.62662 15.3778 3.30001 16.2 3.30001H34.8ZM16.2 0.200012C14.5557 0.200012 12.9787 0.853225 11.8159 2.01595C10.6532 3.17868 10 4.75567 10 6.40001V43.6C10 45.2444 10.6532 46.8213 11.8159 47.9841C12.9787 49.1468 14.5557 49.8 16.2 49.8H34.8C36.4443 49.8 38.0213 49.1468 39.1841 47.9841C40.3468 46.8213 41 45.2444 41 43.6V6.40001C41 4.75567 40.3468 3.17868 39.1841 2.01595C38.0213 0.853225 36.4443 0.200012 34.8 0.200012L16.2 0.200012Z" fill="#18191A"/>
<path d="M25.5 43.6C26.3222 43.6 27.1107 43.2734 27.692 42.6921C28.2734 42.1107 28.6 41.3222 28.6 40.5C28.6 39.6779 28.2734 38.8894 27.692 38.308C27.1107 37.7266 26.3222 37.4 25.5 37.4C24.6778 37.4 23.8893 37.7266 23.308 38.308C22.7266 38.8894 22.4 39.6779 22.4 40.5C22.4 41.3222 22.7266 42.1107 23.308 42.6921C23.8893 43.2734 24.6778 43.6 25.5 43.6Z" fill="#18191A"/>
<path d="M28.2642 21.3574L24.5134 20.2259C24.0793 20.097 23.7771 19.6781 23.7771 19.2126C23.7771 18.6289 24.2355 18.1562 24.8016 18.1562H27.1042C27.5279 18.1562 27.9447 18.2887 28.292 18.5322C28.5038 18.679 28.7886 18.6432 28.9692 18.4606L30.1778 17.2432C30.4244 16.9961 30.3896 16.5843 30.1153 16.3659C29.2644 15.6784 28.2017 15.2952 27.1112 15.2917V13.5729C27.1112 13.2578 26.8611 13 26.5555 13H25.4441C25.1385 13 24.8885 13.2578 24.8885 13.5729V15.2917H24.8016C22.5894 15.2917 20.8112 17.2503 21.0161 19.5742C21.162 21.2249 22.3844 22.5677 23.9264 23.0332L27.4862 24.1074C27.9204 24.2399 28.2225 24.6553 28.2225 25.1208C28.2225 25.7044 27.7641 26.1771 27.198 26.1771H24.8954C24.4717 26.1771 24.0549 26.0446 23.7076 25.8011C23.4958 25.6543 23.211 25.6901 23.0304 25.8727L21.8218 27.0902C21.5752 27.3372 21.61 27.749 21.8843 27.9674C22.7352 28.6549 23.7979 29.0381 24.8885 29.0417V30.7604C24.8885 31.0755 25.1385 31.3333 25.4441 31.3333H26.5555C26.8611 31.3333 27.1112 31.0755 27.1112 30.7604V29.0345C28.7296 29.0023 30.2472 28.0104 30.7821 26.4313C31.5288 24.2256 30.275 21.9626 28.2642 21.3574Z" fill="#C0028B"/>
<path d="M44.6137 20.8652H32.4821C32.2159 20.8652 32 21.0848 32 21.3556V23.6443C32 23.9152 32.2159 24.1348 32.4821 24.1348H44.6137V26.0172C44.6137 26.891 45.6523 27.3287 46.2598 26.7108L49.7176 23.1936C50.0941 22.8105 50.0941 22.1895 49.7176 21.8064L46.2598 18.2893C45.6524 17.6713 44.6137 18.109 44.6137 18.9828V20.8652Z" fill="#C0028B"/>
</svg>
