<svg width="50" height="50" viewBox="0 0 50 50" fill="none" xmlns="http://www.w3.org/2000/svg">
<path d="M47.7719 11.7826C47.5596 11.5683 47.3068 11.3984 47.0283 11.2827C46.7497 11.1671 46.4509 11.1079 46.1493 11.1088H44.5293V7.29079C44.5286 6.68345 44.2871 6.10117 43.8576 5.67171C43.4282 5.24225 42.8459 5.00068 42.2385 5H9.27277C7.48486 5.00003 5.77019 5.71028 4.50595 6.97452C3.24172 8.23876 2.53146 9.95342 2.53144 11.7413V37.9658C2.53146 39.7537 3.24172 41.4683 4.50595 42.7326C5.77019 43.9968 7.48486 44.7071 9.27277 44.7071H46.0591C46.665 44.7059 47.2459 44.4652 47.675 44.0374C48.1042 43.6097 48.3468 43.0296 48.3499 42.4236L48.44 13.4074C48.4419 13.1058 48.3838 12.8068 48.2691 12.5279C48.1544 12.249 47.9854 11.9956 47.7719 11.7826ZM45.298 41.6527H9.27277C8.29493 41.6527 7.35714 41.2642 6.66571 40.5728C5.97427 39.8814 5.58583 38.9436 5.58583 37.9658V11.7413C5.58583 10.7635 5.97427 9.8257 6.66571 9.13427C7.35714 8.44283 8.29493 8.05439 9.27277 8.05439H41.4749V11.1088H9.40382V14.1632H45.3833L45.298 41.6527Z" fill="#18191A"/>
<path d="M38.4205 25.6171H41.4749V28.6715H38.4205V25.6171Z" fill="#18191A"/>
<path d="M10.5 48C15.7467 48 20 43.7467 20 38.5C20 33.2533 15.7467 29 10.5 29C5.25329 29 1 33.2533 1 38.5C1 43.7467 5.25329 48 10.5 48Z" fill="white" stroke="#C0028B" stroke-width="1.9"/>
<path d="M10.5 38.5H6.7M10.5 34.7V38.5V34.7ZM10.5 38.5V42.3V38.5ZM10.5 38.5H14.3H10.5Z" stroke="#C0028B" stroke-width="1.9" stroke-linecap="round"/>
</svg>
